<svg xmlns="http://www.w3.org/2000/svg" viewBox="0 0 256 256" role="img" aria-label="Ukulele">
  <defs>
    <linearGradient id="g" x1="0" x2="1" y1="0" y2="1">
      <stop offset="0" stop-color="#f59e0b"/>
      <stop offset="1" stop-color="#b45309"/>
    </linearGradient>
  </defs>
  <rect width="256" height="256" rx="56" fill="#0b1220"/>
  <!-- Headstock + neck -->
  <path d="M172 32c-6 0-11 5-11 11v24c0 5 5 10 11 10h18c6 0 11-5 11-10V43c0-6-5-11-11-11h-18Z" fill="#111827" opacity=".9"/>
  <path d="M168 78h24v78c0 8-6 14-14 14h-10V78Z" fill="#111827" opacity=".9"/>
  <!-- Strings -->
  <path d="M172 46h18" stroke="#94a3b8" stroke-width="2" stroke-linecap="round"/>
  <path d="M172 54h18" stroke="#94a3b8" stroke-width="2" stroke-linecap="round"/>
  <path d="M172 62h18" stroke="#94a3b8" stroke-width="2" stroke-linecap="round"/>
  <path d="M172 70h18" stroke="#94a3b8" stroke-width="2" stroke-linecap="round"/>
  <!-- Body -->
  <path d="M110 88c-22 0-38 16-38 38 0 9 3 18 8 25-17 6-28 20-28 38 0 25 19 45 45 45 13 0 25-5 34-14 9 9 21 14 34 14 25 0 45-20 45-45 0-18-11-32-28-38 5-7 8-16 8-25 0-22-16-38-38-38-12 0-22 4-30 12-8-8-18-12-30-12Z" fill="url(#g)"/>
  <path d="M128 108c-16 0-28 12-28 28s12 28 28 28 28-12 28-28-12-28-28-28Z" fill="#0b1220" opacity=".35"/>
  <circle cx="128" cy="136" r="18" fill="#0b1220" opacity=".55"/>
  <!-- Bridge -->
  <rect x="110" y="168" width="36" height="10" rx="5" fill="#111827" opacity=".9"/>
  <path d="M146 173h30" stroke="#111827" stroke-width="6" stroke-linecap="round" opacity=".9"/>
</svg>


